<svg width="24" height="24" viewBox="0 0 24 24" fill="none" xmlns="http://www.w3.org/2000/svg">
<g id="icon">
<path id="Vector" d="M23.9996 15.0173C23.9371 15.3055 23.889 15.5973 23.8102 15.8811C23.2296 17.9661 21.2021 19.613 18.6602 19.4205C16.5102 19.2573 14.584 17.4798 14.2821 15.2742C14.0402 13.5073 14.6108 12.0192 15.949 10.8373C16.0958 10.7073 16.1065 10.618 16.0333 10.448C15.7946 9.89295 15.5765 9.32858 15.339 8.73983C15.2883 8.81858 15.2421 8.88483 15.2002 8.9542C14.0458 10.8955 12.889 12.8355 11.7421 14.7811C11.5465 15.113 11.2902 15.2717 10.904 15.2542C10.5383 15.238 10.1721 15.2505 9.78459 15.2505C9.44459 17.0261 8.48709 18.3298 6.81334 19.0517C5.67084 19.5448 4.49521 19.5655 3.32209 19.1605C0.93459 18.3355 -0.41916 15.8173 0.193965 13.3505C0.796465 10.9248 3.34772 9.06483 6.30397 9.8417C6.22584 9.6417 6.15709 9.4667 6.08834 9.2917C5.98897 9.03795 5.87772 8.78858 5.79272 8.52983C5.73646 8.35795 5.64271 8.30295 5.46771 8.3192C5.29022 8.33545 5.10896 8.3292 4.93021 8.32045C4.52771 8.30108 4.23147 7.99733 4.23272 7.61545C4.23459 7.22233 4.54209 6.92295 4.95896 6.92108C5.73084 6.91733 6.50272 6.9192 7.27459 6.92045C7.72834 6.92108 8.03396 7.1867 8.04896 7.58733C8.06396 7.99483 7.78896 8.27858 7.33646 8.32295C7.30646 8.32608 7.27646 8.3317 7.22209 8.33983C7.32459 8.59608 7.41709 8.84295 7.52522 9.0817C7.54522 9.12545 7.63271 9.16233 7.68896 9.16233C9.56021 9.1667 11.4308 9.16733 13.3021 9.16045C13.3746 9.16045 13.4765 9.09483 13.5152 9.03045C13.9283 8.3517 14.3346 7.6692 14.7308 6.98108C14.769 6.91545 14.7621 6.78108 14.7183 6.71795C14.4071 6.2642 13.9752 5.99608 13.4227 5.93545C13.3296 5.92545 13.2358 5.92295 13.1433 5.90983C12.7558 5.85295 12.504 5.54045 12.5327 5.15608C12.5596 4.79483 12.8621 4.51608 13.2446 4.52295C14.3402 4.54295 15.209 5.00608 15.8546 5.88733C16.1602 6.3042 16.3127 6.78358 16.419 7.28358C16.6121 8.1942 16.9458 9.05733 17.3215 9.90608C17.3302 9.92608 17.3496 9.9417 17.3396 9.92983C17.849 9.84295 18.3333 9.71358 18.8246 9.68358C21.404 9.5267 23.6152 11.3673 23.9565 13.9261C23.9633 13.9792 23.9846 14.0305 23.999 14.0823C23.9996 14.3936 23.9996 14.7055 23.9996 15.0173ZM8.32271 15.2511C8.23584 15.2511 8.15271 15.2511 8.06959 15.2511C7.05646 15.2511 6.04272 15.2517 5.02959 15.2505C4.55584 15.2498 4.23584 14.9667 4.23459 14.5511C4.23334 14.1355 4.55397 13.8486 5.02522 13.848C6.03834 13.8467 7.05209 13.8473 8.06522 13.8473C8.14959 13.8473 8.23396 13.8473 8.32084 13.8473C8.15709 12.623 6.87334 11.0005 4.81584 11.0723C2.95084 11.1373 1.46709 12.6542 1.45021 14.4992C1.43334 16.3855 2.88022 17.9286 4.76334 18.0236C6.77709 18.1248 8.12959 16.5661 8.32271 15.2511ZM16.749 12.0161C15.6027 12.9855 15.1352 15.0167 16.3065 16.6105C17.4271 18.1348 19.5483 18.4867 21.0946 17.4111C22.6471 16.3311 23.0596 14.228 22.0277 12.6467C21.1571 11.3111 19.1021 10.6148 17.9896 11.2967C18.2083 11.6892 18.4177 12.088 18.6483 12.4742C18.9758 13.0223 19.3165 13.5623 19.6565 14.103C19.8971 14.4861 19.8346 14.9105 19.4958 15.1336C19.1515 15.3598 18.7477 15.2586 18.4871 14.8786C18.4033 14.7567 18.3202 14.6336 18.244 14.5073C17.7471 13.6798 17.2508 12.8523 16.749 12.0161ZM8.06959 10.5792C8.20646 10.7948 8.28897 10.9811 8.42084 11.1211C8.94272 11.6736 9.33834 12.2992 9.57397 13.0217C9.66084 13.2867 9.71709 13.5617 9.79209 13.848C10.0052 13.848 10.2233 13.8392 10.4402 13.8511C10.5971 13.8598 10.6883 13.8123 10.7721 13.6686C11.3327 12.7073 11.9052 11.753 12.4733 10.7955C12.5115 10.7311 12.544 10.663 12.5883 10.5792C11.094 10.5792 9.62521 10.5792 8.06959 10.5792Z" fill="#111111"/>
</g>
</svg>
