<svg width="64" height="64" viewBox="0 0 64 64" fill="none" xmlns="http://www.w3.org/2000/svg">
<g filter="url(#filter0_b_665_5745)">
<rect width="64" height="64" rx="32" fill="white"/>
<path d="M32.0373 40.5438C30.9894 41.4969 29.9707 42.4219 28.954 43.3479C27.4071 44.7563 25.8717 46.1782 24.3102 47.5709C22.3467 49.3209 19.4498 48.4157 18.829 45.8667C18.753 45.5552 18.7248 45.224 18.7248 44.9021C18.7196 36.8052 18.7175 28.7073 18.7227 20.6104C18.7248 17.6657 20.9686 15.4229 23.905 15.4209C29.3373 15.4167 34.7696 15.4157 40.2009 15.4219C43.0727 15.425 45.3394 17.6511 45.3457 20.5282C45.3613 28.6771 45.3571 36.8271 45.3488 44.9761C45.3467 46.999 43.829 48.5365 41.9134 48.4917C41.0707 48.4719 40.3602 48.1282 39.7425 47.5636C37.9009 45.8802 36.055 44.2021 34.2102 42.5219C33.4988 41.8719 32.7873 41.225 32.0373 40.5438ZM42.0175 45.1657C42.0175 44.9532 42.0175 44.8396 42.0175 44.7261C42.0175 36.7073 42.0175 28.6875 42.0165 20.6688C42.0165 19.4844 41.2832 18.7511 40.0946 18.7511C34.728 18.749 29.3602 18.749 23.9936 18.7511C22.78 18.7511 22.053 19.4792 22.053 20.6896C22.0519 28.6573 22.053 36.624 22.053 44.5917C22.053 44.7146 22.0634 44.8365 22.0717 45.0198C22.2259 44.8886 22.3332 44.8011 22.4352 44.7084C24.8248 42.5459 27.2113 40.3802 29.604 38.2219C31.128 36.8479 32.8967 36.8584 34.4248 38.2427C35.4457 39.1677 36.4602 40.1 37.478 41.0282C38.9665 42.3834 40.454 43.7396 42.0175 45.1657Z" fill="#111111"/>
</g>
<defs>
<filter id="filter0_b_665_5745" x="-32" y="-32" width="128" height="128" filterUnits="userSpaceOnUse" color-interpolation-filters="sRGB">
<feFlood flood-opacity="0" result="BackgroundImageFix"/>
<feGaussianBlur in="BackgroundImageFix" stdDeviation="16"/>
<feComposite in2="SourceAlpha" operator="in" result="effect1_backgroundBlur_665_5745"/>
<feBlend mode="normal" in="SourceGraphic" in2="effect1_backgroundBlur_665_5745" result="shape"/>
</filter>
</defs>
</svg>
