<svg width="32" height="32" viewBox="0 0 32 32" fill="none" xmlns="http://www.w3.org/2000/svg">
<g id="icon">
<path id="Vector" d="M15.9995 22.2321C15.2127 22.9237 14.4478 23.5949 13.6844 24.2669C12.5229 25.2888 11.3701 26.3206 10.1976 27.3311C8.72331 28.601 6.5482 27.9441 6.08204 26.0946C6.02495 25.8686 6.00383 25.6282 6.00383 25.3946C5.99992 19.5194 5.99835 13.6434 6.00227 7.76812C6.00383 5.63132 7.68855 4.00397 9.89339 4.00246C13.9722 3.99943 18.0511 3.99868 22.1291 4.00321C24.2855 4.00548 25.9874 5.62074 25.9921 7.70841C26.0038 13.6215 26.0007 19.5353 25.9944 25.4483C25.9929 26.9162 24.8533 28.0318 23.4149 27.9993C22.7822 27.9849 22.2488 27.7355 21.785 27.3258C20.4022 26.1044 19.0162 24.8867 17.6311 23.6675C17.0969 23.1959 16.5627 22.7265 15.9995 22.2321ZM23.4932 25.5859C23.4932 25.4317 23.4932 25.3493 23.4932 25.2669C23.4932 19.4483 23.4932 13.629 23.4924 7.81045C23.4924 6.95104 22.9418 6.41892 22.0493 6.41892C18.0198 6.41741 13.9894 6.41741 9.95987 6.41892C9.04868 6.41892 8.50275 6.94726 8.50275 7.82557C8.50197 13.6071 8.50275 19.3879 8.50275 25.1694C8.50275 25.2586 8.51057 25.347 8.51683 25.48C8.63259 25.3848 8.71315 25.3213 8.7898 25.254C10.584 23.6849 12.3759 22.1135 14.1725 20.5473C15.3167 19.5504 16.6448 19.5579 17.7922 20.5625C18.5587 21.2337 19.3205 21.9102 20.0846 22.5836C21.2023 23.567 22.3192 24.5511 23.4932 25.5859Z" fill="white"/>
</g>
</svg>
