<svg width="current" height="current" viewBox="0 0 45 44" fill="none" xmlns="http://www.w3.org/2000/svg">
<g id="camera 1">
<path id="Vector" d="M22.6 35.6766C18.1267 35.6766 13.6533 35.6766 9.18001 35.6766C6.54001 35.6766 4.79834 33.9349 4.79834 31.2949C4.79834 26.8949 4.79834 22.4949 4.79834 18.0766C4.79834 15.4549 6.54001 13.7133 9.18001 13.7133C10.28 13.7133 11.38 13.6949 12.48 13.7133C13.2317 13.7316 13.7267 13.4016 14.0383 12.7416C14.3867 12.0266 14.735 11.3116 15.1017 10.5966C15.9083 9.01992 17.1917 8.23159 18.97 8.21326C21.4083 8.21326 23.865 8.21326 26.3033 8.21326C28.0817 8.21326 29.365 9.01992 30.1717 10.5966C30.5383 11.3116 30.905 12.0266 31.235 12.7416C31.5467 13.4199 32.0417 13.7316 32.7933 13.7133C33.9483 13.6949 35.1033 13.6949 36.2583 13.7133C38.6783 13.7316 40.475 15.5099 40.475 17.9116C40.4933 22.4216 40.4933 26.9499 40.475 31.4599C40.475 33.8983 38.6783 35.6583 36.2217 35.6766C31.6933 35.6766 27.1467 35.6766 22.6 35.6766ZM22.6183 32.9266C27.1467 32.9266 31.675 32.9266 36.2033 32.9266C37.175 32.9266 37.725 32.3766 37.725 31.4049C37.725 26.9133 37.725 22.4216 37.725 17.9299C37.725 16.9949 37.1567 16.4449 36.2217 16.4449C35.03 16.4449 33.8567 16.4449 32.665 16.4449C30.9233 16.4266 29.64 15.6383 28.8333 14.0799C28.4483 13.3283 28.0633 12.5766 27.6967 11.8249C27.4033 11.2199 26.9267 10.9449 26.2483 10.9449C23.81 10.9449 21.39 10.9449 18.9517 10.9449C18.2733 10.9449 17.815 11.2199 17.5217 11.8249C17.1733 12.6133 16.8067 13.3833 16.4033 14.1533C15.615 15.6749 14.35 16.4449 12.6267 16.4633C11.4717 16.4816 10.3167 16.4633 9.16167 16.4633C8.06167 16.4633 7.54834 16.9949 7.54834 18.0949C7.54834 22.4766 7.54834 26.8766 7.54834 31.2583C7.54834 32.4316 8.04334 32.9266 9.21667 32.9266C13.6717 32.9266 18.145 32.9266 22.6183 32.9266Z" fill="current"/>
<path id="Vector_2" d="M10.262 12.3384C10.0236 12.3384 9.76698 12.3567 9.52865 12.3384C8.79531 12.3017 8.20865 11.6967 8.22698 10.9634C8.22698 10.23 8.81365 9.62504 9.54698 9.60671C10.0236 9.58837 10.5186 9.58837 10.9953 9.60671C11.7653 9.62504 12.3336 10.23 12.3336 10.9634C12.3336 11.715 11.747 12.32 10.977 12.3384C10.757 12.3567 10.5003 12.3384 10.262 12.3384Z" fill="current"/>
<path id="Vector_3" d="M30.8682 23.32C30.8865 27.83 27.1832 31.5517 22.6732 31.5517C18.1449 31.5517 14.4049 27.885 14.4049 23.3933C14.3865 18.755 18.0532 15.0883 22.6915 15.07C27.1832 15.0883 30.8499 18.7917 30.8682 23.32ZM17.1549 23.3017C17.1549 26.345 19.5932 28.82 22.6549 28.82C25.6799 28.82 28.1365 26.3633 28.1365 23.3383C28.1549 20.3317 25.6799 17.8383 22.6732 17.8383C19.6299 17.8383 17.1549 20.2767 17.1549 23.3017Z" fill="current"/>
</g>
</svg>
