<svg width="38" height="38" viewBox="0 0 38 38" fill="none" xmlns="http://www.w3.org/2000/svg">
<g filter="url(#filter0_d_295_4651)">
<rect x="3.5" y="1" width="32" height="32" rx="16" fill="#111111"/>
<path d="M19.5004 22.9674C17.5484 22.9674 15.5964 22.9674 13.6444 22.9674C12.4924 22.9674 11.7324 22.2074 11.7324 21.0554C11.7324 19.1354 11.7324 17.2154 11.7324 15.2874C11.7324 14.1434 12.4924 13.3834 13.6444 13.3834C14.1244 13.3834 14.6044 13.3754 15.0844 13.3834C15.4124 13.3914 15.6284 13.2474 15.7644 12.9594C15.9164 12.6474 16.0684 12.3354 16.2284 12.0234C16.5804 11.3354 17.1404 10.9914 17.9164 10.9834C18.9804 10.9834 20.0524 10.9834 21.1164 10.9834C21.8924 10.9834 22.4524 11.3354 22.8044 12.0234C22.9644 12.3354 23.1244 12.6474 23.2684 12.9594C23.4044 13.2554 23.6204 13.3914 23.9484 13.3834C24.4524 13.3754 24.9564 13.3754 25.4604 13.3834C26.5164 13.3914 27.3004 14.1674 27.3004 15.2154C27.3084 17.1834 27.3084 19.1594 27.3004 21.1274C27.3004 22.1914 26.5164 22.9594 25.4444 22.9674C23.4684 22.9674 21.4844 22.9674 19.5004 22.9674ZM19.5084 21.7674C21.4844 21.7674 23.4604 21.7674 25.4364 21.7674C25.8604 21.7674 26.1004 21.5274 26.1004 21.1034C26.1004 19.1434 26.1004 17.1834 26.1004 15.2234C26.1004 14.8154 25.8524 14.5754 25.4444 14.5754C24.9244 14.5754 24.4124 14.5754 23.8924 14.5754C23.1324 14.5674 22.5724 14.2234 22.2204 13.5434C22.0524 13.2154 21.8844 12.8874 21.7244 12.5594C21.5964 12.2954 21.3884 12.1754 21.0924 12.1754C20.0284 12.1754 18.9724 12.1754 17.9084 12.1754C17.6124 12.1754 17.4124 12.2954 17.2844 12.5594C17.1324 12.9034 16.9724 13.2394 16.7964 13.5754C16.4524 14.2394 15.9004 14.5754 15.1484 14.5834C14.6444 14.5914 14.1404 14.5834 13.6364 14.5834C13.1564 14.5834 12.9324 14.8154 12.9324 15.2954C12.9324 17.2074 12.9324 19.1274 12.9324 21.0394C12.9324 21.5514 13.1484 21.7674 13.6604 21.7674C15.6044 21.7674 17.5564 21.7674 19.5084 21.7674Z" fill="#D7FF00"/>
<path d="M14.1167 12.7839C14.0127 12.7839 13.9007 12.7919 13.7967 12.7839C13.4767 12.7679 13.2207 12.5039 13.2287 12.1839C13.2287 11.8639 13.4847 11.5999 13.8047 11.5919C14.0127 11.5839 14.2287 11.5839 14.4367 11.5919C14.7727 11.5999 15.0207 11.8639 15.0207 12.1839C15.0207 12.5119 14.7647 12.7759 14.4287 12.7839C14.3327 12.7919 14.2207 12.7839 14.1167 12.7839Z" fill="#D7FF00"/>
<path d="M23.1098 17.5756C23.1178 19.5436 21.5018 21.1676 19.5338 21.1676C17.5578 21.1676 15.9258 19.5676 15.9258 17.6076C15.9178 15.5836 17.5178 13.9836 19.5418 13.9756C21.5018 13.9836 23.1018 15.5996 23.1098 17.5756ZM17.1258 17.5676C17.1258 18.8956 18.1898 19.9756 19.5258 19.9756C20.8458 19.9756 21.9178 18.9036 21.9178 17.5836C21.9258 16.2716 20.8458 15.1836 19.5338 15.1836C18.2058 15.1836 17.1258 16.2476 17.1258 17.5676Z" fill="#D7FF00"/>
</g>
<defs>
<filter id="filter0_d_295_4651" x="0.94" y="0.36" width="37.12" height="37.12" filterUnits="userSpaceOnUse" color-interpolation-filters="sRGB">
<feFlood flood-opacity="0" result="BackgroundImageFix"/>
<feColorMatrix in="SourceAlpha" type="matrix" values="0 0 0 0 0 0 0 0 0 0 0 0 0 0 0 0 0 0 127 0" result="hardAlpha"/>
<feOffset dy="1.92"/>
<feGaussianBlur stdDeviation="1.28"/>
<feComposite in2="hardAlpha" operator="out"/>
<feColorMatrix type="matrix" values="0 0 0 0 0 0 0 0 0 0 0 0 0 0 0 0 0 0 0.25 0"/>
<feBlend mode="normal" in2="BackgroundImageFix" result="effect1_dropShadow_295_4651"/>
<feBlend mode="normal" in="SourceGraphic" in2="effect1_dropShadow_295_4651" result="shape"/>
</filter>
</defs>
</svg>
