<svg width="32" height="32" viewBox="0 0 32 32" fill="none" xmlns="http://www.w3.org/2000/svg">
<path d="M1.38287 15.949C1.40704 7.84899 7.99204 1.28899 16.072 1.31649C24.1195 1.34399 30.7095 7.96316 30.672 15.9823C30.6345 24.149 24.0387 30.6607 15.8545 30.6107C7.89537 30.5623 1.35954 23.9398 1.38287 15.949ZM14.1962 16.009C14.0654 16.1007 13.9595 16.154 13.8804 16.2332C12.7387 17.3698 11.5987 18.509 10.462 19.6507C10.002 20.1132 9.88704 20.6857 10.1354 21.2173C10.5362 22.0748 11.6229 22.2448 12.327 21.5473C13.4795 20.4065 14.6212 19.2548 15.7687 18.1082C15.8479 18.029 15.9312 17.954 16.0262 17.864C16.1137 17.9448 16.1912 18.0107 16.2629 18.0823C16.9612 18.7807 17.6595 19.479 18.357 20.1773C18.842 20.6623 19.3212 21.154 19.8154 21.6298C20.1879 21.989 20.6362 22.1098 21.1379 21.9548C21.6379 21.7998 21.9454 21.4523 22.052 20.9448C22.1595 20.4307 21.9645 20.0132 21.602 19.6523C20.4529 18.5082 19.3079 17.3598 18.1612 16.2123C18.0829 16.134 18.0079 16.0523 17.8754 15.9132C17.9937 15.8282 18.0987 15.7732 18.1787 15.6932C19.3204 14.5557 20.4562 13.4132 21.5987 12.2773C21.9612 11.9165 22.1579 11.4998 22.0529 10.9857C21.9487 10.4773 21.6412 10.1282 21.1412 9.97316C20.6145 9.80982 20.1562 9.95232 19.772 10.3357C18.6095 11.4957 17.4495 12.659 16.2879 13.8198C16.2087 13.899 16.1254 13.974 16.0295 14.064C15.9345 13.9748 15.8504 13.8998 15.7712 13.8215C14.617 12.6682 13.4654 11.5107 12.3079 10.3598C11.7204 9.77566 10.9029 9.75733 10.362 10.3023C9.82121 10.8482 9.84787 11.6565 10.4337 12.2482C11.0554 12.8765 11.682 13.499 12.307 14.124C12.9104 14.7282 13.5137 15.329 14.1962 16.009Z" fill="current"/>
<path d="M14.1974 16.0091C13.5149 15.3291 12.9115 14.7283 12.309 14.1266C11.684 13.5024 11.0574 12.8791 10.4357 12.2508C9.84987 11.6583 9.8232 10.8508 10.364 10.3049C10.904 9.75994 11.7224 9.77827 12.3099 10.3624C13.4674 11.5133 14.6182 12.6699 15.7732 13.8241C15.8524 13.9033 15.9357 13.9774 16.0315 14.0666C16.1274 13.9766 16.2107 13.9016 16.2899 13.8224C17.4515 12.6608 18.6115 11.4983 19.774 10.3383C20.1582 9.95494 20.6165 9.8116 21.1432 9.97577C21.6424 10.1308 21.9499 10.4799 22.0549 10.9883C22.1607 11.5024 21.964 11.9191 21.6007 12.2799C20.4582 13.4166 19.3224 14.5591 18.1807 15.6958C18.1007 15.7758 17.9965 15.8308 17.8774 15.9158C18.0099 16.0549 18.0849 16.1366 18.1632 16.2149C19.309 17.3624 20.454 18.5108 21.604 19.6549C21.9665 20.0158 22.1615 20.4341 22.054 20.9474C21.9474 21.4549 21.6399 21.8024 21.1399 21.9574C20.6382 22.1133 20.1899 21.9916 19.8174 21.6324C19.3232 21.1566 18.8449 20.6649 18.359 20.1799C17.6607 19.4816 16.9632 18.7824 16.2649 18.0849C16.1932 18.0133 16.1157 17.9474 16.0282 17.8666C15.9332 17.9566 15.8499 18.0316 15.7707 18.1108C14.624 19.2574 13.4815 20.4083 12.329 21.5499C11.6249 22.2474 10.5382 22.0774 10.1374 21.2199C9.88903 20.6883 10.004 20.1149 10.464 19.6533C11.6007 18.5116 12.7407 17.3724 13.8824 16.2358C13.9615 16.1541 14.0674 16.0999 14.1974 16.0091Z" fill="white"/>
</svg>
