<svg width="32" height="32" viewBox="0 0 32 32" fill="none" xmlns="http://www.w3.org/2000/svg">
<path d="M30.0285 14.6019C29.9646 15.0324 29.9131 15.4655 29.8341 15.8933C29.4756 17.8326 28.4682 19.3991 27.0419 20.7233C25.9156 21.7688 24.6624 22.6466 23.3683 23.465C21.0758 24.9152 18.77 26.3433 16.4712 27.7838C16.0851 28.0252 15.6902 28.0855 15.2846 27.8574C14.8807 27.6311 14.713 27.2681 14.7174 26.811C14.7236 26.1365 14.7218 25.4628 14.7183 24.7883C14.7147 24.0827 14.2594 23.6398 13.5538 23.6229C12.5438 23.5981 11.5258 23.6318 10.5273 23.5102C8.15754 23.2209 6.16766 22.1363 4.57451 20.3665C2.77899 18.3731 1.94825 16.0104 2.04233 13.3309C2.18789 9.19583 5.14431 5.45392 9.13917 4.32851C9.96725 4.09509 10.8095 3.94775 11.6696 3.94598C14.594 3.93888 17.5185 3.91758 20.443 3.95042C25.0414 4.00189 29.109 7.5157 29.8705 12.0511C29.9273 12.3901 29.977 12.7309 30.0294 13.0718C30.0285 13.5812 30.0285 14.0915 30.0285 14.6019ZM16.9088 24.9205C17.6454 24.4652 18.3342 24.0427 19.0194 23.6141C20.8877 22.446 22.7906 21.3304 24.5373 19.9787C25.4639 19.2615 26.3248 18.4769 26.9363 17.4598C27.7653 16.0814 27.9401 14.5708 27.7937 13.0061C27.4387 9.19228 24.1725 6.16751 20.3409 6.1329C17.4706 6.10716 14.6003 6.12491 11.7299 6.12935C10.9782 6.13024 10.2442 6.26159 9.52969 6.49591C5.86855 7.69854 3.69228 11.3117 4.33575 15.1158C4.8958 18.4326 7.74128 21.0916 11.0847 21.3801C11.9447 21.4547 12.8145 21.4129 13.679 21.4369C14.7245 21.4671 15.5774 21.8984 16.2218 22.7221C16.7126 23.3505 16.9212 24.0729 16.9088 24.9205Z" fill="current"/>
<path d="M16.0312 12.687C14.6475 12.687 13.2629 12.6905 11.8792 12.6852C11.3493 12.6834 10.9366 12.3444 10.8115 11.8367C10.6988 11.3787 10.9073 10.8746 11.3351 10.6536C11.5064 10.5648 11.715 10.5072 11.9058 10.5072C14.6555 10.4983 17.4051 10.4992 20.1556 10.5018C20.7991 10.5027 21.2792 10.9776 21.2792 11.5935C21.2792 12.2086 20.7991 12.6834 20.1556 12.6861C18.7808 12.6905 17.406 12.687 16.0312 12.687Z" fill="current"/>
<path d="M16.061 14.8751C17.4358 14.8751 18.8106 14.8706 20.1855 14.8768C20.7641 14.8795 21.2212 15.3029 21.2763 15.8602C21.3313 16.4167 20.9567 16.9218 20.3985 17.0389C20.3195 17.0558 20.236 17.0602 20.1544 17.0602C17.4048 17.0611 14.6542 17.0629 11.9046 17.0593C11.3064 17.0584 10.8405 16.6395 10.7863 16.0741C10.7331 15.515 11.1049 15.0109 11.6641 14.8964C11.7786 14.8733 11.8993 14.8751 12.0173 14.8742C13.3664 14.8742 14.7137 14.8751 16.061 14.8751Z" fill="current"/>
</svg>
