<svg width="40" height="40" viewBox="0 0 40 40" fill="none" xmlns="http://www.w3.org/2000/svg">
<g id="icon">
<path id="Vector" d="M19.9887 7.00001C21.6405 6.995 22.995 8.33844 23 9.98747C23.005 11.639 21.6605 12.9941 20.0121 13C18.362 13.0058 17.005 11.659 17 10.0117C16.9958 8.36015 18.3411 7.00502 19.9887 7.00001Z" fill="white"/>
<path id="Vector_2" d="M23 20.0042C22.9975 21.6541 21.6462 23.0017 19.9958 23C18.3472 22.9983 16.9975 21.6449 17 19.995C17.0025 18.3468 18.3555 16.9975 20.005 17C21.6545 17.0025 23.0017 18.3535 23 20.0042Z" fill="white"/>
<path id="Vector_3" d="M17 29.9891C17.005 28.3409 18.3605 26.995 20.0109 27C21.6603 27.005 23.005 28.3585 23 30.01C22.995 31.6591 21.6403 33.0042 19.99 33C18.3422 32.9958 16.9958 31.639 17 29.9891Z" fill="white"/>
</g>
</svg>
