<svg width="current" height="current" viewBox="0 0 32 32" fill="none" xmlns="http://www.w3.org/2000/svg">
<path d="M30 13.2174C29.8875 13.766 29.8101 14.3285 29.6553 14.8702C29.2052 16.4257 28.2838 17.6826 27.1373 18.8075C25.1327 20.7728 23.0085 22.5991 20.8562 24.3977C19.5901 25.4601 18.3029 26.5087 17.0228 27.5573C16.3053 28.1476 15.7497 28.1476 15.0252 27.5573C12.0851 25.1685 9.15908 22.7519 6.3667 20.1894C5.36791 19.2728 4.32692 18.3839 3.56728 17.252C1.71037 14.4952 1.41496 11.5994 3.15932 8.7106C5.7407 4.43988 11.6701 3.75934 15.2714 7.23147C15.5105 7.46063 15.7426 7.70368 16.0029 7.96756C16.235 7.7384 16.4531 7.53007 16.6641 7.3148C17.494 6.48843 18.4647 5.87734 19.576 5.46763C24.1761 3.78712 29.2896 6.82176 29.9226 11.5994C29.9367 11.7244 29.9648 11.8425 29.9859 11.9675C30 12.3911 30 12.8008 30 13.2174ZM16.0099 25.2171C16.1014 25.1476 16.1717 25.099 16.228 25.0504C18.1552 23.4324 20.1036 21.8422 21.9956 20.1894C23.3391 19.0159 24.6544 17.8145 25.8923 16.5368C27.3553 15.016 27.904 13.1688 27.285 11.1133C26.1807 7.44674 21.4189 6.24539 18.5983 8.8842C18.0497 9.39808 17.5292 9.93278 16.9946 10.4605C16.4109 11.03 15.6442 11.0369 15.0604 10.4605C14.575 9.98834 14.0968 9.50224 13.6114 9.03003C12.3805 7.83562 10.9105 7.32174 9.19425 7.49535C6.12755 7.80784 3.9893 10.7314 4.64344 13.7105C4.93182 15.0299 5.65629 16.0923 6.60584 17.0298C8.71596 19.1061 10.9738 21.0158 13.2386 22.9185C14.146 23.6824 15.0744 24.4393 16.0099 25.2171Z" fill="current"/>
</svg>
