<svg width="64" height="64" viewBox="0 0 64 64" fill="none" xmlns="http://www.w3.org/2000/svg">
<g filter="url(#filter0_b_665_5758)">
<rect width="64" height="64" rx="32" fill="#111111" fill-opacity="0.3"/>
<path d="M51 29.033C50.8473 29.7963 50.7423 30.5789 50.5323 31.3325C49.9213 33.4967 48.6708 35.2454 47.1149 36.8106C44.3943 39.5448 41.5115 42.0858 38.5905 44.5882C36.8723 46.0664 35.1254 47.5253 33.3881 48.9842C32.4144 49.8054 31.6603 49.8054 30.6771 48.9842C26.6869 45.6606 22.7159 42.2984 18.9262 38.7332C17.5707 37.4579 16.158 36.2212 15.127 34.6464C12.6069 30.8108 12.206 26.7819 14.5734 22.7627C18.0767 16.8208 26.1237 15.874 31.0112 20.7048C31.3357 21.0236 31.6507 21.3617 32.0039 21.7289C32.3189 21.41 32.6149 21.1202 32.9012 20.8207C34.0276 19.671 35.3449 18.8207 36.8532 18.2507C43.0961 15.9126 50.0359 20.1347 50.895 26.7819C50.9141 26.9558 50.9523 27.12 50.9809 27.2939C51 27.8833 51 28.4533 51 29.033ZM32.0135 45.7282C32.1376 45.6316 32.233 45.564 32.3094 45.4963C34.9249 43.2452 37.5691 41.0327 40.1369 38.7332C41.9602 37.1004 43.7452 35.429 45.4253 33.6513C47.4108 31.5354 48.1554 28.9654 47.3153 26.1056C45.8166 21.0043 39.3542 19.3328 35.5263 23.0042C34.7817 23.7192 34.0754 24.4631 33.3499 25.1974C32.5576 25.9896 31.5171 25.9993 30.7248 25.1974C30.0661 24.5404 29.417 23.8641 28.7584 23.2071C27.0879 21.5453 25.0928 20.8304 22.7636 21.0719C18.6017 21.5067 15.6998 25.5742 16.5875 29.719C16.9789 31.5547 17.9621 33.0329 19.2508 34.3372C22.1145 37.226 25.1787 39.883 28.2524 42.5302C29.4838 43.593 30.7439 44.6461 32.0135 45.7282Z" fill="white"/>
</g>
<defs>
<filter id="filter0_b_665_5758" x="-32" y="-32" width="128" height="128" filterUnits="userSpaceOnUse" color-interpolation-filters="sRGB">
<feFlood flood-opacity="0" result="BackgroundImageFix"/>
<feGaussianBlur in="BackgroundImageFix" stdDeviation="16"/>
<feComposite in2="SourceAlpha" operator="in" result="effect1_backgroundBlur_665_5758"/>
<feBlend mode="normal" in="SourceGraphic" in2="effect1_backgroundBlur_665_5758" result="shape"/>
</filter>
</defs>
</svg>
