<svg width="24" height="24" viewBox="0 0 24 24" fill="current" xmlns="http://www.w3.org/2000/svg">
<g id="up_line">
<path id="Vector" d="M12.1903 2.68528C12.0911 2.58615 11.9303 2.58615 11.8311 2.68528L3.53044 10.9813C3.43126 11.0804 3.43126 11.2412 3.53044 11.3403L4.06919 11.8787C4.16837 11.9779 4.32917 11.9779 4.42835 11.8787L11.3281 4.98279V20.9887C11.3281 21.1289 11.4418 21.2425 11.5821 21.2425H12.344C12.4843 21.2425 12.598 21.1289 12.598 20.9887V4.88759L19.4978 11.7835C19.5969 11.8827 19.7577 11.8827 19.8569 11.7835L20.3957 11.2451C20.4949 11.146 20.4949 10.9853 20.3957 10.8861L12.1903 2.68528Z" fill="white"/>
</g>
</svg>
