<svg width="32" height="32" viewBox="0 0 32 32" fill="none" xmlns="http://www.w3.org/2000/svg">
<g clip-path="url(#clip0_798_15040)">
<path d="M-0.0585938 15.8438C0.0959807 15.5865 0.222787 15.3079 0.407906 15.0746C2.66543 12.2451 5.28487 9.81909 8.43467 8.004C10.508 6.80905 12.7202 6.00656 15.1267 5.84551C17.3315 5.69741 19.4409 6.13059 21.4643 6.99602C24.3632 8.23632 26.842 10.0884 29.0468 12.3117C29.9622 13.2355 30.7989 14.2397 31.6449 15.2292C32.1253 15.791 32.1077 16.2538 31.6495 16.8351C29.3735 19.7183 26.7281 22.1934 23.533 24.0362C21.0237 25.4829 18.3459 26.3576 15.4081 26.228C13.3903 26.1392 11.4864 25.5949 9.68052 24.7073C5.88836 22.8441 2.8524 20.0747 0.254258 16.7898C0.121897 16.6222 0.0441474 16.4103 -0.0585938 16.2187C-0.0585937 16.0937 -0.0585938 15.9687 -0.0585938 15.8438ZM2.33037 16.053C2.95144 16.7231 3.53549 17.3895 4.15749 18.0189C6.21694 20.1034 8.49298 21.8953 11.2041 23.0699C12.5601 23.6577 13.9707 24.0446 15.459 24.1149C17.7332 24.2223 19.826 23.5883 21.8179 22.559C24.0439 21.4075 25.971 19.8544 27.7241 18.08C28.3674 17.4293 28.9699 16.7398 29.604 16.053C29.4883 15.9151 29.4077 15.8068 29.3152 15.7114C28.3331 14.7044 27.3946 13.6483 26.3551 12.7042C24.4132 10.94 22.2557 9.49791 19.7575 8.61211C17.2343 7.71799 14.7167 7.71706 12.1935 8.60378C10.0221 9.3674 8.11349 10.579 6.3456 12.0294C4.88964 13.2244 3.57807 14.5618 2.33037 16.053Z" fill="current"/>
<path d="M15.9883 9.69883C19.4982 9.71827 22.3352 12.5793 22.3009 16.0669C22.2667 19.5722 19.4306 22.3832 15.9476 22.3638C12.4368 22.3443 9.60173 19.4842 9.63506 15.9957C9.67023 12.4895 12.5044 9.67939 15.9883 9.69883ZM15.9791 20.2562C18.3134 20.2414 20.1933 18.3541 20.1896 16.0281C20.1859 13.6993 18.3014 11.8129 15.9726 11.8064C13.6429 11.8009 11.7186 13.7317 11.7436 16.0503C11.7695 18.3902 13.6632 20.271 15.9791 20.2562Z" fill="current"/>
</g>
<defs>
<clipPath id="clip0_798_15040">
<rect width="32" height="32" fill="white"/>
</clipPath>
</defs>
</svg>
