<svg width="24" height="24" viewBox="0 0 24 24" fill="none" xmlns="http://www.w3.org/2000/svg">
<g id="icon">
<path id="Vector" d="M9.87404 9.92802C9.64173 10.144 9.37398 10.333 9.18385 10.5816C8.62923 11.305 8.10554 12.052 7.56948 12.79C7.52448 12.8519 7.47723 12.9121 7.41816 12.9903C6.93554 12.6398 6.46079 12.295 5.96973 11.9384C6.07998 11.7854 6.1846 11.6397 6.29035 11.4946C6.82641 10.7566 7.3591 10.0169 7.90135 9.28339C7.99923 9.15121 8.12073 9.02858 8.25291 8.93127C9.10004 8.30746 9.98316 7.72808 10.7965 7.06433C11.9682 6.10808 13.7227 6.76733 14.2227 8.10439C14.2475 8.17021 14.2745 8.23489 14.2942 8.30183C14.7132 9.75196 15.7786 10.5113 17.141 10.9304C17.5111 11.044 17.9088 11.0682 18.307 11.1357C18.307 11.7005 18.307 12.2798 18.307 12.8851C17.3677 12.8958 16.4857 12.686 15.6447 12.2939C14.8066 11.9035 14.0962 11.3433 13.4718 10.6103C13.3992 11.0091 13.3323 11.3714 13.2682 11.7336C13.1354 12.4863 13.0083 13.2395 12.8705 13.991C12.8469 14.1192 12.8784 14.1935 12.9774 14.275C13.5078 14.7121 14.0343 15.1548 14.5563 15.602C14.6322 15.6666 14.7037 15.7561 14.7374 15.8483C15.3747 17.5842 16.0059 19.3229 16.6381 21.0605C16.6522 21.0993 16.6623 21.1398 16.682 21.2045C16.1279 21.407 15.5789 21.6078 15.0119 21.8148C14.9832 21.7439 14.9557 21.6826 14.9326 21.6201C14.3712 20.08 13.8138 18.5388 13.2451 17.0009C13.195 16.8653 13.0983 16.7298 12.988 16.6353C12.0425 15.8303 11.0879 15.0361 10.1384 14.2356C9.58829 13.7716 9.36891 13.1821 9.49323 12.4705C9.63329 11.6695 9.7756 10.8691 9.91623 10.0681C9.92185 10.036 9.91679 10.0017 9.91679 9.96852C9.90273 9.95558 9.88866 9.94208 9.87404 9.92802Z" fill="#111111"/>
<path id="Vector_2" d="M9.79118 15.1406C10.3419 15.6019 10.8672 16.0423 11.3982 16.4867C11.0354 17.2545 10.7435 18.0347 10.1574 18.6754C9.39574 19.5079 8.69656 20.3983 7.97037 21.264C7.92593 21.3169 7.87924 21.3681 7.81962 21.4356C7.36512 21.0542 6.91568 20.6779 6.44824 20.2858C6.70699 19.9759 6.95674 19.6766 7.20706 19.3779C7.81118 18.6579 8.41755 17.9391 9.01887 17.2162C9.08412 17.1381 9.13474 17.0408 9.16905 16.9446C9.37605 16.3568 9.57631 15.7667 9.79118 15.1406Z" fill="#111111"/>
<path id="Vector_3" d="M13.3764 6.14909C12.387 6.14684 11.5826 5.34359 11.582 4.35753C11.5815 3.3664 12.401 2.55415 13.3955 2.56034C14.3793 2.56653 15.1877 3.38496 15.1787 4.36596C15.1708 5.35709 14.3675 6.15134 13.3764 6.14909Z" fill="#111111"/>
</g>
</svg>
